<svg width="48" height="48" viewBox="0 0 48 48" fill="none" xmlns="http://www.w3.org/2000/svg">
<g clip-path="url(#clip0_3_105)">
<path d="M28.0115 29.4086C26.8173 30.2048 25.4302 30.6256 24 30.6256C22.5699 30.6256 21.1828 30.2048 19.9886 29.4086L0.319594 16.2955C0.210469 16.2228 0.104156 16.1469 0 16.0689V37.5562C0 40.0197 1.99922 41.9749 4.41872 41.9749H43.5812C46.0448 41.9749 47.9999 39.9757 47.9999 37.5562V16.0688C47.8956 16.147 47.7891 16.2231 47.6797 16.2959L28.0115 29.4086Z" fill="#F97316"/>
<path d="M1.87969 13.9554L21.5487 27.0686C22.2933 27.565 23.1466 27.8132 23.9999 27.8132C24.8533 27.8132 25.7067 27.5649 26.4513 27.0686L46.1203 13.9554C47.2973 13.1712 48 11.8587 48 10.4421C48 8.0064 46.0184 6.0249 43.5828 6.0249H4.41722C1.98159 6.025 0 8.0065 0 10.4445C0 11.8587 0.70275 13.1712 1.87969 13.9554Z" fill="#F97316"/>
</g>
<defs>
<clipPath id="clip0_3_105">
<rect width="48" height="48" fill="white"/>
</clipPath>
</defs>
</svg>
