<svg width="96" height="96" viewBox="0 0 96 96" fill="none" xmlns="http://www.w3.org/2000/svg">
<path d="M71.988 70.5H60V59.4675C62.671 60.3422 65.1232 61.7796 67.1913 63.6828C69.2593 65.586 70.895 67.9107 71.988 70.5ZM58.5 34.5C58.8978 34.5 59.2794 34.658 59.5607 34.9393C59.842 35.2206 60 35.6022 60 36C60 36.3978 59.842 36.7794 59.5607 37.0607C59.2794 37.342 58.8978 37.5 58.5 37.5H57V34.5H58.5ZM37.5 4.5H40.5V13.5H37.5V4.5ZM34.5 7.8435V15C34.5 15.3978 34.658 15.7794 34.9393 16.0607C35.2206 16.342 35.6022 16.5 36 16.5H42C42.3978 16.5 42.7794 16.342 43.0607 16.0607C43.342 15.7794 43.5 15.3978 43.5 15V7.8435C46.2341 8.45779 48.7076 9.91189 50.5741 12.0021C52.4405 14.0924 53.6064 16.7141 53.9085 19.5H24.09C24.3915 16.7136 25.5574 14.0914 27.4243 12.0011C29.2911 9.91069 31.7653 8.4569 34.5 7.8435ZM22.5 22.5H55.5C55.8978 22.5 56.2794 22.658 56.5607 22.9393C56.842 23.2206 57 23.6022 57 24C57 24.3978 56.842 24.7794 56.5607 25.0607C56.2794 25.342 55.8978 25.5 55.5 25.5H22.5C22.1022 25.5 21.7206 25.342 21.4393 25.0607C21.158 24.7794 21 24.3978 21 24C21 23.6022 21.158 23.2206 21.4393 22.9393C21.7206 22.658 22.1022 22.5 22.5 22.5ZM19.5 37.5C19.1022 37.5 18.7206 37.342 18.4393 37.0607C18.158 36.7794 18 36.3978 18 36C18 35.6022 18.158 35.2206 18.4393 34.9393C18.7206 34.658 19.1022 34.5 19.5 34.5H21V37.5H19.5ZM24 37.5V28.5H54V37.5C54 41.4782 52.4196 45.2936 49.6066 48.1066C46.7936 50.9196 42.9782 52.5 39 52.5C35.0218 52.5 31.2064 50.9196 28.3934 48.1066C25.5804 45.2936 24 41.4782 24 37.5ZM39 55.5C40.5194 55.492 42.0316 55.2903 43.5 54.9V57C43.5 58.1935 43.0259 59.3381 42.182 60.182C41.3381 61.0259 40.1935 61.5 39 61.5C37.8065 61.5 36.6619 61.0259 35.818 60.182C34.9741 59.3381 34.5 58.1935 34.5 57V54.9C35.9684 55.2903 37.4806 55.4919 39 55.5ZM31.65 58.5C31.9943 60.1954 32.9141 61.7197 34.2536 62.8146C35.5931 63.9094 37.27 64.5075 39 64.5075C40.73 64.5075 42.4069 63.9094 43.7464 62.8146C45.0859 61.7197 46.0057 60.1954 46.35 58.5H54C55.0048 58.5025 56.0078 58.5832 57 58.7415V70.5H27C25.8065 70.5 24.6619 70.9741 23.818 71.818C22.9741 72.6619 22.5 73.8065 22.5 75V79.5H19.5V59.046C20.9735 58.6886 22.4838 58.5054 24 58.5H31.65ZM43.5 91.2315L57 88.575V91.5H43.5V91.2315ZM9 91.5C7.80653 91.5 6.66193 91.0259 5.81802 90.182C4.97411 89.3381 4.5 88.1935 4.5 87V78C4.50355 74.151 5.64451 70.3889 7.77955 67.1864C9.91458 63.9838 12.9485 61.4837 16.5 60V79.5H13.5V82.5H30C31.1935 82.5 32.3381 82.9741 33.182 83.818C34.0259 84.6619 34.5 85.8065 34.5 87C34.5 88.1935 34.0259 89.3381 33.182 90.182C32.3381 91.0259 31.1935 91.5 30 91.5H9ZM40.5 91.5H35.9595C36.8085 90.3925 37.3298 89.069 37.4644 87.68C37.5989 86.291 37.3411 84.8922 36.7204 83.6423C36.0997 82.3924 35.1409 81.3417 33.9529 80.6095C32.765 79.8773 31.3955 79.4929 30 79.5H25.5V75C25.5 74.6022 25.658 74.2206 25.9393 73.9393C26.2206 73.658 26.6022 73.5 27 73.5H40.5V91.5ZM73.5 87C73.5 88.1935 73.0259 89.3381 72.182 90.182C71.3381 91.0259 70.1935 91.5 69 91.5H60V87.9855L73.5 85.329V87ZM91.5 78.729L43.5 88.179V73.5H91.5V78.729Z" fill="#F97316"/>
</svg>
