<svg width="48" height="48" viewBox="0 0 48 48" fill="none" xmlns="http://www.w3.org/2000/svg">
<g clip-path="url(#clip0_3_116)">
<path d="M46.7059 20.8777C46.7048 20.8766 46.7037 20.8755 46.7026 20.8744L27.1224 1.29492C26.2878 0.459961 25.1782 0 23.9979 0C22.8176 0 21.7079 0.459595 20.873 1.29456L1.30303 20.8641C1.29644 20.8707 1.28984 20.8777 1.28325 20.8843C-0.430615 22.608 -0.427685 25.4048 1.29168 27.1241C2.0772 27.91 3.11467 28.3652 4.22393 28.4128C4.26897 28.4172 4.31438 28.4194 4.36016 28.4194H5.14055V42.8287C5.14055 45.6801 7.4605 48 10.3125 48H17.9729C18.7493 48 19.3792 47.3705 19.3792 46.5938V35.2969C19.3792 33.9957 20.4375 32.9374 21.7387 32.9374H26.257C27.5582 32.9374 28.6165 33.9957 28.6165 35.2969V46.5938C28.6165 47.3705 29.246 48 30.0228 48H37.6832C40.5352 48 42.8552 45.6801 42.8552 42.8287V28.4194H43.5788C44.7587 28.4194 45.8683 27.9598 46.7037 27.1249C48.4249 25.4026 48.4256 22.6011 46.7059 20.8777Z" fill="#F97316"/>
</g>
<defs>
<clipPath id="clip0_3_116">
<rect width="48" height="48" fill="white"/>
</clipPath>
</defs>
</svg>
