<svg width="96" height="96" viewBox="0 0 96 96" fill="none" xmlns="http://www.w3.org/2000/svg">
<path d="M90 73.5H85.5V67.5C85.5 65.9087 84.8679 64.3826 83.7426 63.2574C82.6174 62.1321 81.0913 61.5 79.5 61.5H16.5C14.9087 61.5 13.3826 62.1321 12.2574 63.2574C11.1321 64.3826 10.5 65.9087 10.5 67.5V73.5H6C5.20435 73.5 4.44129 73.8161 3.87868 74.3787C3.31607 74.9413 3 75.7044 3 76.5V82.5C3 83.2956 3.31607 84.0587 3.87868 84.6213C4.44129 85.1839 5.20435 85.5 6 85.5H12V88.5C12 89.6935 12.4741 90.8381 13.318 91.682C14.1619 92.5259 15.3065 93 16.5 93H39.591C40.3328 93.0009 41.0634 92.8185 41.7176 92.4688C42.3719 92.1192 42.9295 91.6132 43.341 90.996C43.8527 90.2281 44.5461 89.5984 45.3597 89.1629C46.1732 88.7274 47.0817 88.4995 48.0045 88.4995C48.9273 88.4995 49.8358 88.7274 50.6493 89.1629C51.4629 89.5984 52.1563 90.2281 52.668 90.996C53.0786 91.612 53.6349 92.1171 54.2874 92.4667C54.94 92.8163 55.6687 92.9995 56.409 93H79.5C80.6935 93 81.8381 92.5259 82.682 91.682C83.5259 90.8381 84 89.6935 84 88.5V85.5H90C90.7956 85.5 91.5587 85.1839 92.1213 84.6213C92.6839 84.0587 93 83.2956 93 82.5V76.5C93 75.7044 92.6839 74.9413 92.1213 74.3787C91.5587 73.8161 90.7956 73.5 90 73.5ZM16.5 69C15.3895 69.0031 14.32 69.4196 13.5 70.1685V67.5C13.5 66.7044 13.8161 65.9413 14.3787 65.3787C14.9413 64.8161 15.7044 64.5 16.5 64.5H79.5C80.2956 64.5 81.0587 64.8161 81.6213 65.3787C82.1839 65.9413 82.5 66.7044 82.5 67.5V70.1685C81.68 69.4196 80.6105 69.0031 79.5 69H16.5Z" fill="#F97316"/>
<path d="M90 45V43.5C90 33.5544 86.0491 24.0161 79.0165 16.9835C71.9839 9.95088 62.4456 6 52.5 6V37.5C52.5 37.8978 52.342 38.2794 52.0607 38.5607C51.7794 38.842 51.3978 39 51 39H45C44.6022 39 44.2206 38.842 43.9393 38.5607C43.658 38.2794 43.5 37.8978 43.5 37.5V6C33.5544 6 24.0161 9.95088 16.9835 16.9835C9.95088 24.0161 6 33.5544 6 43.5V45C5.20435 45 4.44129 45.3161 3.87868 45.8787C3.31607 46.4413 3 47.2043 3 48V54C3 54.7957 3.31607 55.5587 3.87868 56.1213C4.44129 56.6839 5.20435 57 6 57H90C90.7956 57 91.5587 56.6839 92.1213 56.1213C92.6839 55.5587 93 54.7957 93 54V48C93 47.2043 92.6839 46.4413 92.1213 45.8787C91.5587 45.3161 90.7956 45 90 45Z" fill="#F97316"/>
<path d="M46.5 3H49.5V36H46.5V3Z" fill="#F97316"/>
</svg>
