<svg width="48" height="48" viewBox="0 0 48 48" fill="none" xmlns="http://www.w3.org/2000/svg">
<path d="M19.4813 6.75H1.40625C0.629517 6.75 0 7.37952 0 8.15625V26.2313C0 27.0081 0.629517 27.6376 1.40625 27.6376H9.03735V39.7877C9.03735 40.5641 9.66687 41.194 10.4436 41.194H14.9626C15.568 41.194 16.1052 40.8065 16.2964 40.2323L20.8151 26.6759C20.863 26.5327 20.8876 26.3826 20.8876 26.2313V8.15625C20.8876 7.37952 20.2581 6.75 19.4813 6.75V6.75Z" fill="#7C2D12"/>
<path d="M46.5936 6.75H28.5186C27.7418 6.75 27.1123 7.37952 27.1123 8.15625V26.2313C27.1123 27.0081 27.7418 27.6376 28.5186 27.6376H36.15V39.7877C36.15 40.5641 36.7795 41.194 37.5563 41.194H42.075C42.6803 41.194 43.2175 40.8065 43.4091 40.2323L47.9277 26.6759C47.9753 26.5327 47.9999 26.3826 47.9999 26.2313V8.15625C47.9999 7.37952 47.3704 6.75 46.5936 6.75Z" fill="#7C2D12"/>
</svg>
