<svg width="48" height="48" viewBox="0 0 48 48" fill="none" xmlns="http://www.w3.org/2000/svg">
<path d="M24 48C37.2515 48 48 37.2515 48 24C48 10.7485 37.2515 0 24 0C10.7485 0 0 10.7485 0 24C0 37.2515 10.7485 48 24 48ZM22.2857 10.2857C22.2857 9.34284 23.0571 8.5714 24 8.5714C24.9429 8.5714 25.7143 9.34284 25.7143 10.2857V23.1772L33.6429 29.52C34.3801 30.1115 34.5 31.1914 33.9086 31.9286C33.5742 32.3486 33.0772 32.5714 32.5714 32.5714C32.1942 32.5714 31.8171 32.4513 31.5 32.1942L22.9286 25.3372C22.5258 25.0114 22.2858 24.5229 22.2858 24V10.2857H22.2857Z" fill="#F97316"/>
</svg>
