<svg width="96" height="96" viewBox="0 0 96 96" fill="none" xmlns="http://www.w3.org/2000/svg">
<path d="M50.8574 37.9351C50.5785 37.6574 50.201 37.5015 49.8074 37.5015C49.4138 37.5015 49.0363 37.6574 48.7574 37.9351L37.9349 48.7501C37.6564 49.0286 37.5 49.4063 37.5 49.8001C37.5 50.1939 37.6564 50.5716 37.9349 50.8501L40.4849 53.4001L53.3999 40.4761L50.8574 37.9351Z" fill="#F97316"/>
<path d="M35.1113 56.9944L37.466 54.6397L41.3448 58.5186L38.9902 60.8732L35.1113 56.9944Z" fill="#F97316"/>
<path d="M4.50008 85.5735C4.49407 86.7174 4.82091 87.8383 5.44077 88.7997C6.06063 89.7611 6.94675 90.5214 7.99114 90.9881C9.03553 91.4547 10.1931 91.6075 11.3228 91.4278C12.4525 91.2481 13.5055 90.7437 14.3536 89.976L6.02108 81.645C5.05296 82.7258 4.51218 84.1226 4.50008 85.5735Z" fill="#F97316"/>
<path d="M21.3271 43.7054L20.8126 42.6764C20.3431 41.7407 20.1806 40.6808 20.3484 39.6474C20.5162 38.6141 21.0056 37.66 21.7471 36.9209C22.6962 36.0132 23.9588 35.5066 25.2721 35.5066C26.5854 35.5066 27.848 36.0132 28.7971 36.9209L30.5761 38.6999L39.5446 29.7299C39.3362 28.3787 39.4785 26.9966 39.958 25.7163C40.4375 24.4359 41.238 23.3003 42.2827 22.4183C43.3274 21.5364 44.5813 20.9378 45.924 20.68C47.2666 20.4221 48.653 20.5137 49.9501 20.9459L51.5401 21.4769L44.6206 14.5604C42.2096 12.1467 38.9926 10.7079 35.5862 10.5196C32.1798 10.3314 28.8238 11.4071 26.1616 13.5404L29.5591 16.9379C29.6986 17.0772 29.8092 17.2427 29.8847 17.4248C29.9602 17.6069 29.999 17.8021 29.999 17.9992C29.999 18.1963 29.9602 18.3915 29.8847 18.5736C29.8092 18.7557 29.6986 18.9211 29.5591 19.0604L23.5591 25.0604C23.4198 25.1999 23.2544 25.3105 23.0723 25.386C22.8902 25.4615 22.695 25.5004 22.4978 25.5004C22.3007 25.5004 22.1055 25.4615 21.9234 25.386C21.7413 25.3105 21.5759 25.1999 21.4366 25.0604L17.9761 21.5999L15.7096 23.8649C16.4341 24.7477 16.8338 25.8525 16.8417 26.9945C16.8496 28.1366 16.4653 29.2467 15.7531 30.1395C15.0408 31.0323 14.0438 31.6536 12.9285 31.8995C11.8132 32.1455 10.6473 32.0013 9.62559 31.4909L8.59809 30.9764L5.12109 34.4549L17.8501 47.1824L21.3271 43.7054Z" fill="#F97316"/>
<path d="M20.0928 19.4771L23.9705 15.5993L26.3719 18.0006L22.4941 21.8784L20.0928 19.4771Z" fill="#F97316"/>
<path d="M33.8776 60.0001L28.5001 54.6211L27.0001 56.1211V60.0001C27 60.3979 26.8419 60.7794 26.5606 61.0606L26.1211 61.5001L29.2501 64.6261L33.8776 60.0001Z" fill="#F97316"/>
<path d="M32.6909 40.8225L41.1739 32.3396L45.6386 36.8043L37.1556 45.2872L32.6909 40.8225Z" fill="#F97316"/>
<path d="M8.1123 79.4922L23.9891 63.6154L27.1165 66.7429L11.2397 82.6196L8.1123 79.4922Z" fill="#F97316"/>
<path d="M87.4381 12.4379C87.5776 12.2987 87.7433 12.1884 87.9255 12.1132C88.1077 12.0381 88.303 11.9996 88.5001 11.9999H90.2701L91.3711 6.49194L89.5066 4.62744L84.0001 5.72844V7.49994C84 7.89773 83.8419 8.2792 83.5606 8.56044L54.6421 37.4759L58.5211 41.3549L87.4381 12.4379Z" fill="#F97316"/>
<path d="M13.3608 84.7422L29.2376 68.8654L32.365 71.9929L16.4883 87.8696L13.3608 84.7422Z" fill="#F97316"/>
<path d="M90.8731 77.9506L55.5211 42.6001L42.6001 55.5226L77.9506 90.8746C78.3579 91.2601 78.8973 91.4749 79.4581 91.4749C80.0189 91.4749 80.5583 91.2601 80.9656 90.8746L90.8731 80.9656C91.0713 80.7678 91.2285 80.5328 91.3358 80.2741C91.4431 80.0154 91.4983 79.7381 91.4983 79.4581C91.4983 79.1781 91.4431 78.9008 91.3358 78.6421C91.2285 78.3834 91.0713 78.1484 90.8731 77.9506ZM55.0606 48.4381L58.0606 51.4381L55.9381 53.5606L52.9381 50.5606L55.0606 48.4381ZM51.4381 58.0606L48.4381 55.0606L50.5606 52.9381L53.5606 55.9381L51.4381 58.0606ZM57.4381 65.5606L54.4381 62.5606L56.5606 60.4381L59.5606 63.4381L57.4381 65.5606ZM57.4381 59.5606L54.4381 56.5606L56.5606 54.4381L59.5606 57.4381L57.4381 59.5606ZM63.4381 59.5606L60.4381 56.5606L62.5606 54.4381L65.5606 57.4381L63.4381 59.5606Z" fill="#F97316"/>
<path d="M31.3711 66.7501L34.5001 69.8761L34.9381 69.4381C35.0777 69.2989 35.2433 69.1886 35.4255 69.1134C35.6077 69.0382 35.803 68.9997 36.0001 69.0001H39.8776L41.3776 67.5001L36.0001 62.1211L31.3711 66.7501Z" fill="#F97316"/>
</svg>
