<svg width="134" height="38" viewBox="0 0 134 38" fill="none" xmlns="http://www.w3.org/2000/svg">
<path d="M8.10938 35.3125C8.60938 34.625 9.15625 34.1094 9.75 33.7656C10.375 33.4219 11 33.1406 11.625 32.9219C12.2812 32.7031 12.9219 32.5 13.5469 32.3125C14.2031 32.0938 14.8438 31.75 15.4688 31.2812C15.8125 31.0938 16.2969 30.8125 16.9219 30.4375C17.5469 30.0625 18.1562 29.6562 18.75 29.2188C19.375 28.75 19.9062 28.2969 20.3438 27.8594C20.8125 27.4219 21.0469 27.0469 21.0469 26.7344C21.0469 26.7031 21.0312 26.6875 21 26.6875C20.9375 26.6875 20.9062 26.6719 20.9062 26.6406L20.8125 26.5469C20.6562 26.4844 20.4062 26.4062 20.0625 26.3125C19.7188 26.2188 19.5156 26.1562 19.4531 26.125C15.4219 25.6562 12.1719 25.25 9.70312 24.9062C7.26562 24.5312 5.375 24.1406 4.03125 23.7344C2.71875 23.3281 1.84375 22.8594 1.40625 22.3281C0.96875 21.7969 0.75 21.125 0.75 20.3125C0.75 20 0.8125 19.6562 0.9375 19.2812C1.0625 18.9062 1.20312 18.5312 1.35938 18.1562C1.54688 17.7812 1.73438 17.4375 1.92188 17.125C2.10938 16.8125 2.28125 16.5625 2.4375 16.375C2.9375 15.75 3.59375 15.1875 4.40625 14.6875C5.21875 14.1875 6.09375 13.75 7.03125 13.375C7.96875 13 8.90625 12.6719 9.84375 12.3906C10.8125 12.1094 11.6875 11.8594 12.4688 11.6406C13.3438 11.5781 14.2188 11.375 15.0938 11.0312C16 10.6562 16.8906 10.4062 17.7656 10.2812C18.2031 10.2812 18.5625 10.4531 18.8438 10.7969C19.125 11.1406 19.2656 11.5 19.2656 11.875C19.2656 12.4062 19.1562 12.8125 18.9375 13.0938C18.75 13.3438 18.4844 13.5469 18.1406 13.7031C17.8281 13.8281 17.4688 13.9375 17.0625 14.0312C16.6562 14.0938 16.25 14.1719 15.8438 14.2656C15.5938 14.3281 15.25 14.4219 14.8125 14.5469C14.375 14.6406 13.9375 14.75 13.5 14.875C13.0625 15 12.6719 15.1094 12.3281 15.2031C11.9844 15.2969 11.7812 15.3594 11.7188 15.3906C10.75 15.7969 9.82812 16.1875 8.95312 16.5625C8.10938 16.9062 7.35938 17.2656 6.70312 17.6406C6.07812 18.0156 5.57812 18.4219 5.20312 18.8594C4.85938 19.2656 4.70312 19.7188 4.73438 20.2188V20.2656C5.04688 20.7031 5.75 21.0312 6.84375 21.25C7.9375 21.4688 9.21875 21.6562 10.6875 21.8125C12.1875 21.9688 13.75 22.125 15.375 22.2812C17.0312 22.4375 18.5469 22.6719 19.9219 22.9844C21.2969 23.2969 22.4375 23.7188 23.3438 24.25C24.25 24.7812 24.7188 25.5 24.75 26.4062C24.75 26.75 24.6719 27.1562 24.5156 27.625C24.3906 28.0938 24.2031 28.4531 23.9531 28.7031C23.1719 29.5781 22.2344 30.4844 21.1406 31.4219C20.0781 32.3594 18.9219 33.2344 17.6719 34.0469C16.4219 34.8281 15.125 35.5 13.7812 36.0625C12.4688 36.5938 11.1719 36.9062 9.89062 37C9.45312 37 9.04688 36.8438 8.67188 36.5312C8.29688 36.1875 8.10938 35.7812 8.10938 35.3125ZM26.8125 31.375C26.5938 30.4375 26.5938 29.3281 26.8125 28.0469C27.0625 26.7656 27.4375 25.4844 27.9375 24.2031C28.4688 22.8906 29.1094 21.6562 29.8594 20.5C30.6406 19.3438 31.4531 18.4219 32.2969 17.7344C33.1719 17.0469 34.0469 16.6719 34.9219 16.6094C35.8281 16.5156 36.6875 16.9062 37.5 17.7812C37.5 17.8125 37.5156 17.8906 37.5469 18.0156C37.5781 18.1406 37.6094 18.4062 37.6406 18.8125C37.6719 19.1875 37.6875 19.7344 37.6875 20.4531C37.7188 21.1406 37.7344 22.0938 37.7344 23.3125C37.7656 23.375 37.7969 23.4844 37.8281 23.6406C37.8906 23.7656 37.9219 23.8594 37.9219 23.9219C37.8281 24.2656 37.6406 24.5938 37.3594 24.9062C37.1094 25.1875 36.7812 25.3281 36.375 25.3281C35.8438 25.3281 35.4062 25.25 35.0625 25.0938C34.75 24.9062 34.5156 24.4844 34.3594 23.8281C34.4219 23.7344 34.4375 23.5469 34.4062 23.2656C34.375 22.9531 34.3125 22.6094 34.2188 22.2344C34.1562 21.8594 34.0938 21.4844 34.0312 21.1094C33.9688 20.7344 33.9375 20.4375 33.9375 20.2188C33.9062 20.2188 33.8594 20.25 33.7969 20.3125C33.7656 20.3438 33.7344 20.375 33.7031 20.4062C33.1719 21.3438 32.6719 22.3906 32.2031 23.5469C31.7656 24.6719 31.4219 25.8281 31.1719 27.0156C30.9531 28.1719 30.875 29.3281 30.9375 30.4844C31.0312 31.6406 31.375 32.6875 31.9688 33.625C32.4062 33.625 32.8125 33.4531 33.1875 33.1094C33.5625 32.7344 33.875 32.3906 34.125 32.0781C34.6562 31.4531 35.1719 30.8125 35.6719 30.1562C36.2031 29.5 36.6875 28.8125 37.125 28.0938C37.3125 27.7812 37.4531 27.5 37.5469 27.25C37.6406 27 37.75 26.7969 37.875 26.6406C38.0312 26.4844 38.2188 26.3594 38.4375 26.2656C38.6562 26.1719 38.9844 26.125 39.4219 26.125C39.9219 26.125 40.3906 26.25 40.8281 26.5C41.2656 26.7188 41.4844 27.0938 41.4844 27.625C41.4844 28.3438 41.1562 29.25 40.5 30.3438C39.875 31.4062 39.0938 32.4375 38.1562 33.4375C37.25 34.4375 36.2812 35.2969 35.25 36.0156C34.2188 36.7031 33.3125 37.0469 32.5312 37.0469C31.7812 37.0469 31.0469 36.9062 30.3281 36.625C29.6406 36.3125 29.0312 35.9062 28.5 35.4062C28 34.9062 27.5938 34.3125 27.2812 33.625C26.9688 32.9375 26.8125 32.1875 26.8125 31.375ZM44.1094 14.0781C44.1719 12.2031 44.0938 10.3281 43.875 8.45312C43.6562 6.57812 43.5469 4.71875 43.5469 2.875C43.5469 2.28125 43.7188 1.92187 44.0625 1.79688C44.4062 1.64062 44.7969 1.5625 45.2344 1.5625C45.8594 1.5625 46.375 1.73437 46.7812 2.07812C47.1875 2.42188 47.4219 2.90625 47.4844 3.53125C47.7656 6.9375 47.9219 10.3125 47.9531 13.6562C48.0156 16.9688 48.25 20.3281 48.6562 23.7344C49.5938 21.9531 50.5625 20.4844 51.5625 19.3281C52.5625 18.1719 53.5156 17.4062 54.4219 17.0312C55.3594 16.6562 56.2031 16.7344 56.9531 17.2656C57.7344 17.7656 58.3594 18.7812 58.8281 20.3125C59.2969 21.8125 59.5781 23.875 59.6719 26.5C59.7656 29.0938 59.6094 32.3281 59.2031 36.2031C58.9844 36.2031 58.7188 36.2188 58.4062 36.25C58.0938 36.25 57.7812 36.2344 57.4688 36.2031C57.1875 36.1719 56.9375 36.1094 56.7188 36.0156C56.5 35.9219 56.375 35.75 56.3438 35.5C56.5938 33.1562 56.7344 31.1875 56.7656 29.5938C56.7969 28 56.75 26.6875 56.625 25.6562C56.5 24.625 56.3281 23.8438 56.1094 23.3125C55.8906 22.75 55.6562 22.3438 55.4062 22.0938C55.1562 21.8438 54.9062 21.7188 54.6562 21.7188C54.4375 21.6875 54.2656 21.6875 54.1406 21.7188C53.4531 21.9688 52.7969 22.5781 52.1719 23.5469C51.5781 24.5156 51.0625 25.6406 50.625 26.9219C50.1875 28.2031 49.8594 29.5625 49.6406 31C49.4531 32.4062 49.4062 33.6719 49.5 34.7969C49.4688 35.0469 49.4375 35.2969 49.4062 35.5469C49.375 35.7969 49.3125 36.0312 49.2188 36.25C49.1562 36.4688 49.0312 36.6562 48.8438 36.8125C48.6875 36.9375 48.4375 37 48.0938 37C47.4375 37 46.9062 36.8906 46.5 36.6719C46.125 36.4219 45.8281 36.1094 45.6094 35.7344C45.4219 35.3594 45.2969 34.9219 45.2344 34.4219C45.2031 33.9219 45.2188 33.4062 45.2812 32.875L44.1094 14.0781ZM63.7031 34.9844C63.6406 33.8594 63.5312 32.3594 63.375 30.4844C63.25 28.5781 63.0938 26.6094 62.9062 24.5781C62.75 22.5469 62.5781 20.625 62.3906 18.8125C62.2031 17 62.0469 15.5938 61.9219 14.5938C61.9219 14.1875 62.1094 13.9219 62.4844 13.7969C62.8594 13.6719 63.2188 13.6094 63.5625 13.6094C64 13.6094 64.4531 13.7344 64.9219 13.9844C65.4219 14.2344 65.7344 14.5781 65.8594 15.0156C65.8594 15.1406 65.875 15.375 65.9062 15.7188C65.9375 16.0312 65.9531 16.3594 65.9531 16.7031C65.9844 17.0469 66.0156 17.3906 66.0469 17.7344C66.0781 18.0469 66.0938 18.2656 66.0938 18.3906C66.0938 18.5781 66.0938 18.7188 66.0938 18.8125C66.0938 18.9062 66.0938 19 66.0938 19.0938C66.0938 19.1562 66.1094 19.2344 66.1406 19.3281C66.1719 19.4219 66.2188 19.5781 66.2812 19.7969C66.3438 19.7344 66.4062 19.6562 66.4688 19.5625C66.5625 19.4688 66.625 19.4062 66.6562 19.375C67.1562 18.6562 67.6406 18.0312 68.1094 17.5C68.5781 16.9375 69.0625 16.4219 69.5625 15.9531C70.0625 15.4531 70.6094 14.9375 71.2031 14.4062C71.8281 13.8438 72.5469 13.2031 73.3594 12.4844C73.5469 12.3281 73.6875 12.2188 73.7812 12.1562C73.875 12.0625 73.9531 12 74.0156 11.9688C74.1094 11.9062 74.2031 11.875 74.2969 11.875C74.3906 11.8438 74.5156 11.8281 74.6719 11.8281C75.2031 11.8281 75.7344 12.0156 76.2656 12.3906C76.8281 12.7344 77.1094 13.2188 77.1094 13.8438C77.1094 14.0625 77.0312 14.2969 76.875 14.5469C76.7188 14.7656 76.5312 14.9844 76.3125 15.2031C76.0938 15.3906 75.8594 15.5625 75.6094 15.7188C75.3906 15.875 75.1875 15.9844 75 16.0469C74.1875 16.7656 73.3281 17.5938 72.4219 18.5312C71.5156 19.4375 70.6719 20.4219 69.8906 21.4844C69.1094 22.5469 68.4688 23.6562 67.9688 24.8125C67.4688 25.9688 67.2188 27.125 67.2188 28.2812C67.2188 29.3438 67.2969 30.3906 67.4531 31.4219C67.6094 32.4531 67.6875 33.5 67.6875 34.5625V36.2031C67.4375 36.4531 67.2188 36.6562 67.0312 36.8125C66.8438 36.9688 66.5781 37.0469 66.2344 37.0469C65.7031 37.0469 65.1875 36.8281 64.6875 36.3906C64.1875 35.9219 63.8594 35.4531 63.7031 34.9844ZM97.9219 23.6875C97.8594 24.25 97.7812 24.6875 97.6875 25C97.625 25.3125 97.5 25.5938 97.3125 25.8438C97.125 26.0938 96.8594 26.3594 96.5156 26.6406C96.1719 26.8906 95.7031 27.2656 95.1094 27.7656C94.5156 28.2344 93.7812 28.8594 92.9062 29.6406C92.0312 30.4219 90.9688 31.4375 89.7188 32.6875C89.2188 33.1562 88.7031 33.6406 88.1719 34.1406C87.6406 34.6406 87.0781 35.0938 86.4844 35.5C85.9219 35.875 85.3281 36.1875 84.7031 36.4375C84.0781 36.6875 83.4219 36.8125 82.7344 36.8125C81.3906 36.8125 80.4062 36.3594 79.7812 35.4531C79.1562 34.5469 78.8438 33.5 78.8438 32.3125C78.8438 31.5312 78.8594 30.875 78.8906 30.3438C78.9531 29.8125 79.0781 29.125 79.2656 28.2812C78.9219 27.9688 78.625 27.7031 78.375 27.4844C78.125 27.2344 78 26.9062 78 26.5C78 26.125 78.0781 25.875 78.2344 25.75C78.4219 25.625 78.625 25.5469 78.8438 25.5156C79.0938 25.4531 79.3281 25.3906 79.5469 25.3281C79.7656 25.2656 79.9219 25.1406 80.0156 24.9531C80.0781 24.7656 80.1875 24.4219 80.3438 23.9219C80.5312 23.4219 80.7188 22.9062 80.9062 22.375C81.0938 21.8125 81.2656 21.2969 81.4219 20.8281C81.6094 20.3281 81.7344 19.9844 81.7969 19.7969C82.0156 19.2656 82.25 18.7344 82.5 18.2031C82.7812 17.6406 83.0938 17.1406 83.4375 16.7031C83.8125 16.2656 84.2344 15.9062 84.7031 15.625C85.2031 15.3438 85.7812 15.2031 86.4375 15.2031C86.8125 15.2031 87.2656 15.375 87.7969 15.7188C88.3594 16.0625 88.8906 16.4844 89.3906 16.9844C89.8906 17.4531 90.3125 17.9531 90.6562 18.4844C91 19.0156 91.1719 19.4688 91.1719 19.8438C91.1719 20.3125 91.0625 20.75 90.8438 21.1562C90.625 21.5312 90.3438 21.8906 90 22.2344C89.6875 22.5469 89.3438 22.8438 88.9688 23.125C88.5938 23.4062 88.25 23.6719 87.9375 23.9219C87.9062 23.9219 87.8438 23.9531 87.75 24.0156C87.6562 24.0781 87.5781 24.125 87.5156 24.1562C87.4844 24.1875 87.4062 24.2656 87.2812 24.3906C87.1875 24.4844 87.0781 24.5938 86.9531 24.7188C86.8281 24.8438 86.7031 24.9688 86.5781 25.0938C86.4844 25.2188 86.4219 25.2969 86.3906 25.3281C86.2969 25.4219 86.1094 25.5781 85.8281 25.7969C85.5781 25.9844 85.2969 26.2031 84.9844 26.4531C84.6719 26.6719 84.375 26.8906 84.0938 27.1094C83.8438 27.2969 83.6719 27.4219 83.5781 27.4844L83.3906 27.8594C83.3281 27.9844 83.2656 28.2656 83.2031 28.7031C83.1719 29.1094 83.125 29.5781 83.0625 30.1094C83 30.6406 82.9375 31.1875 82.875 31.75C82.8438 32.2812 82.8281 32.7188 82.8281 33.0625C82.8281 33.0938 82.8438 33.125 82.875 33.1562C82.9375 33.2188 82.9844 33.25 83.0156 33.25C83.2656 33.25 83.5 33.1406 83.7188 32.9219C83.9375 32.7031 84.1719 32.5469 84.4219 32.4531L91.9219 25.5156L93.8438 22.5625C94 22.3438 94.2969 22.1094 94.7344 21.8594C95.2031 21.5781 95.6719 21.4375 96.1406 21.4375C96.6094 21.4062 97.0156 21.5469 97.3594 21.8594C97.7344 22.1719 97.9219 22.7812 97.9219 23.6875ZM87.6094 20.0312C87.7656 19.9062 87.8281 19.7188 87.7969 19.4688C87.7656 19.2188 87.6719 19 87.5156 18.8125C87.3906 18.625 87.2188 18.5156 87 18.4844C86.7812 18.4219 86.5781 18.5312 86.3906 18.8125C86.2969 18.9375 86.125 19.1875 85.875 19.5625C85.6562 19.9375 85.4219 20.3281 85.1719 20.7344C84.9531 21.1094 84.7656 21.4375 84.6094 21.7188C84.4531 22 84.4219 22.1094 84.5156 22.0469L87.6094 20.0312ZM101.391 35.2188C101.078 32.0938 100.812 29.4219 100.594 27.2031C100.375 24.9844 100.188 23.125 100.031 21.625C99.875 20.125 99.7344 18.9375 99.6094 18.0625C99.5156 17.1562 99.4375 16.4844 99.375 16.0469C99.3125 15.5781 99.2656 15.2656 99.2344 15.1094C99.2031 14.9531 99.1875 14.8594 99.1875 14.8281V14.6406C99.1875 14.2969 99.3281 14.0156 99.6094 13.7969C99.9219 13.5469 100.234 13.4219 100.547 13.4219C101.016 13.4219 101.516 13.5 102.047 13.6562C102.609 13.8125 102.984 14.1406 103.172 14.6406C103.453 16.1719 103.641 17.7188 103.734 19.2812C103.859 20.8438 103.953 22.4062 104.016 23.9688C104.109 25.5 104.219 27.0469 104.344 28.6094C104.5 30.1719 104.766 31.7188 105.141 33.25C105.141 33.3125 105.156 33.4375 105.188 33.625C105.25 33.8125 105.297 34.0156 105.328 34.2344C105.391 34.4531 105.438 34.6562 105.469 34.8438C105.5 35.0312 105.516 35.1562 105.516 35.2188V35.3125C105.516 35.3438 105.531 35.375 105.562 35.4062C105.562 35.7812 105.391 36.1562 105.047 36.5312C104.703 36.9062 104.344 37.0625 103.969 37C103.875 36.9688 103.641 36.9219 103.266 36.8594C102.922 36.7656 102.688 36.6875 102.562 36.625C102.469 36.5938 102.344 36.5312 102.188 36.4375C102.031 36.3125 101.875 36.1875 101.719 36.0625C101.594 35.9375 101.484 35.7969 101.391 35.6406C101.297 35.4844 101.297 35.3438 101.391 35.2188ZM98.7656 1.04688C98.7656 0.828125 98.9375 0.640625 99.2812 0.484375C99.6562 0.296875 99.9375 0.203125 100.125 0.203125C100.594 0.203125 101.109 0.34375 101.672 0.625C102.266 0.875 102.562 1.26562 102.562 1.79688C102.562 2.32813 102.484 2.6875 102.328 2.875C102.203 3.0625 101.875 3.15625 101.344 3.15625C100.781 3.15625 100.203 2.96875 99.6094 2.59375C99.0469 2.21875 98.7656 1.70312 98.7656 1.04688ZM120.656 35.4062C120.219 34.7812 119.844 33.9219 119.531 32.8281C119.25 31.7031 118.969 30.5312 118.688 29.3125C118.438 28.0625 118.203 26.8594 117.984 25.7031C117.766 24.5156 117.531 23.5781 117.281 22.8906C117.062 22.1719 116.812 21.7656 116.531 21.6719C116.25 21.5781 115.922 22 115.547 22.9375L111.469 35.5C111.312 35.9375 111.125 36.25 110.906 36.4375C110.688 36.5938 110.328 36.6719 109.828 36.6719C109.578 36.6719 109.312 36.6406 109.031 36.5781C108.75 36.4844 108.484 36.3594 108.234 36.2031C107.984 36.0469 107.766 35.8594 107.578 35.6406C107.422 35.4219 107.328 35.1719 107.297 34.8906C107.391 34.5156 107.469 33.8281 107.531 32.8281C107.625 31.8281 107.688 30.6719 107.719 29.3594C107.75 28.0469 107.766 26.6719 107.766 25.2344C107.797 23.7656 107.797 22.4062 107.766 21.1562C107.766 19.875 107.75 18.7812 107.719 17.875C107.688 16.9375 107.656 16.3281 107.625 16.0469C107.625 15.7344 107.625 15.4219 107.625 15.1094C107.656 14.7656 107.703 14.4531 107.766 14.1719C107.859 13.8906 108 13.6719 108.188 13.5156C108.406 13.3281 108.734 13.2344 109.172 13.2344C109.766 13.2344 110.312 13.4844 110.812 13.9844C111.344 14.4844 111.609 15.0156 111.609 15.5781C111.609 16.3906 111.562 17.2031 111.469 18.0156C111.406 18.7969 111.375 19.5938 111.375 20.4062C111.375 20.9062 111.375 21.3281 111.375 21.6719C111.375 22.0156 111.438 22.4375 111.562 22.9375C111.656 22.6875 111.812 22.25 112.031 21.625C112.25 21 112.484 20.3438 112.734 19.6562C113.016 18.9688 113.266 18.3281 113.484 17.7344C113.703 17.1094 113.859 16.6719 113.953 16.4219C114.172 15.7969 114.5 15.2031 114.938 14.6406C115.375 14.0469 115.953 13.7188 116.672 13.6562C117.141 13.625 117.562 13.75 117.938 14.0312C118.344 14.3125 118.688 14.6875 118.969 15.1562C119.25 15.5938 119.484 16.0625 119.672 16.5625C119.859 17.0312 120 17.4375 120.094 17.7812L122.625 29.4531L124.594 34.7969C124.625 34.8281 124.641 34.9219 124.641 35.0781C124.641 35.2031 124.641 35.2969 124.641 35.3594C124.641 35.7344 124.547 36.1094 124.359 36.4844C124.203 36.8281 123.906 37 123.469 37C122.938 37 122.391 36.8594 121.828 36.5781C121.266 36.2656 120.875 35.875 120.656 35.4062ZM128.906 35.2188C128.594 32.0938 128.328 29.4219 128.109 27.2031C127.891 24.9844 127.703 23.125 127.547 21.625C127.391 20.125 127.25 18.9375 127.125 18.0625C127.031 17.1562 126.953 16.4844 126.891 16.0469C126.828 15.5781 126.781 15.2656 126.75 15.1094C126.719 14.9531 126.703 14.8594 126.703 14.8281V14.6406C126.703 14.2969 126.844 14.0156 127.125 13.7969C127.438 13.5469 127.75 13.4219 128.062 13.4219C128.531 13.4219 129.031 13.5 129.562 13.6562C130.125 13.8125 130.5 14.1406 130.688 14.6406C130.969 16.1719 131.156 17.7188 131.25 19.2812C131.375 20.8438 131.469 22.4062 131.531 23.9688C131.625 25.5 131.734 27.0469 131.859 28.6094C132.016 30.1719 132.281 31.7188 132.656 33.25C132.656 33.3125 132.672 33.4375 132.703 33.625C132.766 33.8125 132.812 34.0156 132.844 34.2344C132.906 34.4531 132.953 34.6562 132.984 34.8438C133.016 35.0312 133.031 35.1562 133.031 35.2188V35.3125C133.031 35.3438 133.047 35.375 133.078 35.4062C133.078 35.7812 132.906 36.1562 132.562 36.5312C132.219 36.9062 131.859 37.0625 131.484 37C131.391 36.9688 131.156 36.9219 130.781 36.8594C130.438 36.7656 130.203 36.6875 130.078 36.625C129.984 36.5938 129.859 36.5312 129.703 36.4375C129.547 36.3125 129.391 36.1875 129.234 36.0625C129.109 35.9375 129 35.7969 128.906 35.6406C128.812 35.4844 128.812 35.3438 128.906 35.2188ZM126.281 1.04688C126.281 0.828125 126.453 0.640625 126.797 0.484375C127.172 0.296875 127.453 0.203125 127.641 0.203125C128.109 0.203125 128.625 0.34375 129.188 0.625C129.781 0.875 130.078 1.26562 130.078 1.79688C130.078 2.32813 130 2.6875 129.844 2.875C129.719 3.0625 129.391 3.15625 128.859 3.15625C128.297 3.15625 127.719 2.96875 127.125 2.59375C126.562 2.21875 126.281 1.70312 126.281 1.04688Z" fill="#111111"/>
</svg>
